<svg xmlns="http://www.w3.org/2000/svg" width="41.194" height="41.194" viewBox="0 0 41.194 41.194">
  <path id="Icon_fa-solid-square-phone" data-name="Icon fa-solid-square-phone" d="M5.885,2.25A5.89,5.89,0,0,0,0,8.135V37.559a5.89,5.89,0,0,0,5.885,5.885H35.309a5.89,5.89,0,0,0,5.885-5.885V8.135A5.89,5.89,0,0,0,35.309,2.25Zm8.34,8.892A1.836,1.836,0,0,1,16.4,12.208l1.839,4.414a1.847,1.847,0,0,1-.533,2.133l-2.262,1.857A15.48,15.48,0,0,0,22.831,28l1.857-2.271a1.847,1.847,0,0,1,2.133-.533l4.414,1.839A1.84,1.84,0,0,1,32.3,29.21l-1.1,4.046a1.838,1.838,0,0,1-1.775,1.361,20.6,20.6,0,0,1-20.6-20.6,1.84,1.84,0,0,1,1.352-1.775Z" transform="translate(0 -2.25)" fill="#282828"/>
</svg>
