<svg xmlns="http://www.w3.org/2000/svg" width="35" height="35" viewBox="0 0 35 35">
  <path id="Icon_fa-solid-square-phone" data-name="Icon fa-solid-square-phone" d="M5,2.25a5,5,0,0,0-5,5v25a5,5,0,0,0,5,5H30a5,5,0,0,0,5-5v-25a5,5,0,0,0-5-5ZM12.086,9.8a1.56,1.56,0,0,1,1.852.906l1.563,3.75a1.569,1.569,0,0,1-.453,1.813l-1.922,1.578A13.153,13.153,0,0,0,19.4,24.125l1.578-1.93a1.569,1.569,0,0,1,1.813-.453l3.75,1.562a1.564,1.564,0,0,1,.906,1.852l-.937,3.438A1.562,1.562,0,0,1,25,29.75,17.5,17.5,0,0,1,7.5,12.25a1.564,1.564,0,0,1,1.148-1.508Z" transform="translate(0 -2.25)" fill="#c8c8c8"/>
</svg>
