<svg xmlns="http://www.w3.org/2000/svg" width="25.828" height="31.572" viewBox="0 0 25.828 31.572">
  <path id="Icon_fa-brands-tiktok" data-name="Icon fa-brands-tiktok" d="M25.837,12.947a11.585,11.585,0,0,1-7.08-2.421V21.549a10.025,10.025,0,0,1-6.089,9.387A8.976,8.976,0,0,1,2.313,28.129,10.581,10.581,0,0,1,1.139,16.773a9.216,9.216,0,0,1,9.531-5.159v5.544a4.154,4.154,0,0,0-4.79,1.712,4.864,4.864,0,0,0,.03,5.4,4.149,4.149,0,0,0,4.809,1.651,4.585,4.585,0,0,0,2.964-4.374V0h5.075a7.982,7.982,0,0,0,.107,1.367,7.574,7.574,0,0,0,3.109,4.948,6.681,6.681,0,0,0,3.864,1.242Z" transform="translate(-0.009)" fill="#c8c8c8"/>
</svg>
